<svg xmlns="http://www.w3.org/2000/svg" viewBox="0 0 236.74 194.67"><g id="Layer_2" data-name="Layer 2"><g id="Layer_1-2" data-name="Layer 1"><path d="M232,96.27c-3.92-2.52-3.36-2.94-6-9.39-4.35-10.51-6.59-21.44-9.81-32.23-1-3.08-3.08-5.6-4.21-8.55l-1.68-6.86c-.56-4.49-7.42-18.08-8.41-21.44-.56-2.11-1.68-4.07-1.68-6.31,0-3.22,2-7.71,3.51-10.51,0-.7-.84-1-1.4-1-5.19,0-6.59,2.66-10,5.18C189.93,7,187,8.27,185.45,11.07c-1,1.82-1,3.92-1.68,5.89-.7,2.24-2.39,3.92-3.23,6-1.4,3.22-1.82,6.73-2.8,10.09-1.4,4.77-3.92,9.11-5.46,13.73-1.41,4.07-2.39,8.27-3.93,12.2-1.12,2.94-3.64,5.46-4.2,8.54l-.84,4.91-2.39,6.17c-1.23,4.11-1.34,6.78-2.15,9.23h0s0,0,0,0a.74.74,0,0,1,0,.14h0l0,.08c-.13.23-.27.46-.43.69l-.2.31a7.44,7.44,0,0,1-3.14,2.69c-2.59,1.08-2.39,2.45-5.8,3.05a14.62,14.62,0,0,1-5.34-.12l-.36-.09-.29-.07-.21-.06-.1,0-.08,0c-1.25-.3-2.52-.58-3.75-1-6.31-2.1-8-4.21-15.27-4.21a104.3,104.3,0,0,0-13.32.71c-3.22.41-5.74,2.24-8.69,3.5-3.17,1.32-6.31,2.33-9.21,3.79l-2.5.39c-3.78,0-4.9-4.2-6.72-6.72-1.55-2.11-3.79-3.51-5.47-5.47L72.6,77.77c-1-1.26-2.53-1.54-3.79-2.38-2.52-1.68-3.78-4.48-6.3-6S57,67.54,54.66,65.72c-1-.7-1.68-1.68-2.52-2.38-1-.84-2.81-1.54-3-2.94l.56-.56,6.45,1.4c2.66,0,2.52-1.82,4.2-2.81,1.26-.7,2.81-.28,3.93-1.26.56-.42.7-1.12,1.12-1.68,1.12-1.54,3.22-1.68,4.48-3.08s1.54-3.36,2.53-4.91c1.12-2.1,3.08-3.64,4.06-5.74,1.54-3.36,1.54-7.57,1.54-11.07,0-11.35-4.9-16.68-14.85-21.44-2.11-1-4.35-1.41-6.45-2.24C52,5,51,3.22,45.27,3.22c-.84,0-8.13.28-8.13.28l-7.43-.28-7.42.84-7-1L7.85,3.5,4.21,3.08C2.67,3.08,0,4.06,0,5.88,0,9.39,3.93,10,6.45,10.93c5.75,2.1,5.19-1,6.73,7.43A56.28,56.28,0,0,1,14,28c0,1.27-1,17.8-1,23.41,0,3.22,2,19.9,2,30v1.82c0,1.4-2.1,13-2.52,13.73-.7,1.12-4.21,2.53-5.61,2.53H5.47c-1.68,0-3.78.13-3.78,2.1,0,1,.84,2,1,2.94l.56.28h.28c1.26,0,1.54.84,2.52.84l2-.42,3.09.14c1.68-.14,3.36-.84,5-.84l5.05.42,4.48-.56H37.56L45,105.66c1.4,0,2.66-.7,2.66-2.24,0-5.19-11.21-4.21-14.57-6.73-3.09-2.38-3.37-3.08-3.37-5.46l-.56-6a.61.61,0,0,1-.14-.42,31.18,31.18,0,0,1,.42-3.22l.84-7.15-.42-3.36.56-2.67c0-2-1.4-3.5-1.4-5.18,0-1.26,1.4-1.82,2.39-1.82,2.52,0,8.68,8.27,10.65,10.23l6.3,5.6c2.1,2.25,3.37,5.19,5.61,7.29C57,87.44,61,88.42,64.33,91c2.38,1.68,3.36,4.48,5.6,6.3s10.27,6.49,13.91,7.2c-9,10.36-16.63,23-16.63,37.1,0,2.95.7,5.89,1,8.83a64.61,64.61,0,0,0,1.12,9.11A40.32,40.32,0,0,0,81.78,180c2.25,2,4.21,4.35,6.87,5.75,1.4.7,2.8,1,4.21,1.54,2.52,1.12,4.34,3.36,7,4.34a160.7,160.7,0,0,0,16,3.09,42.35,42.35,0,0,0,7.28-.42c1.83-.28,3.37-1.27,5.19-1.69,2.1-.56,4.48-.14,6.59-1a29.32,29.32,0,0,1,3.22-1.12c.56-.14,2.8-2.8,4.06-3.36,2.81-1.4,5.19-2.38,7.43-4.49a38.15,38.15,0,0,1,3.22-3.5,12.76,12.76,0,0,0,2.11-1.68c.7-.84,1-2.1,1.68-3.08,1.12-1.69,3.5-2.25,4.62-4.07,1-1.4,1.26-3.08,1.82-4.62s1.55-2.66,2.11-4.21c1.54-4.06,1.82-8.4,2.24-12.61.28-2.66,1.26-5.32,1.26-8,0-2.52-.56-5.18-.7-7.7-.7-8.55-1.54-16-6.59-23.27-1.7-2.49-4-4.24-6-6.41,2-1.17,4.44-4.54,5.29-6.93a20.35,20.35,0,0,1,3.2-5.07l0,0c1.11-1.37,2.1-2.43,2.33-2.67l0,0h0a11.71,11.71,0,0,0,1.31-2.4,1.34,1.34,0,0,1,.07-.18,23.29,23.29,0,0,0,.71-2.32c.7-3.64,1.82-15.55,6.87-15.55H203l2,3.08c1.4,2,2.1,7.57,3.22,10.23,1.26,3.22,3.78,6,3.78,9.67a4.56,4.56,0,0,1-2.8,4.34l-9.53,3.36a1.63,1.63,0,0,0-.42,1.13,4.25,4.25,0,0,0,1.68,2.94c10.09.14,20.18.42,30.41.42,1.83,0,5.47-.14,5.47-2.8C236.74,98.66,233,96.83,232,96.27ZM45.83,54.65c-2,0-13.87-2.24-15.14-3.22-1-.7-1.54-3.23-1.54-4.49l.28-4.34c0-1.54-.56-3.08-.7-4.63l-.42-9a27.05,27.05,0,0,1-.7-3.23l.7-3.78-.42-4.34c0-6.87,8-6.87,13-6.87C47.51,10.79,59.84,21,59.84,28c0,.85-.14,2.95-.14,2.95a5.74,5.74,0,0,0,.14,1.54c.28,2,1.26,3.78,1.26,5.89,0,1.4-1.82,7.42-2.38,8.82-1.12,2.53-4.34,2.25-6.44,3.79C49.47,53,50,54.65,45.83,54.65Zm105,90.13a69.06,69.06,0,0,1-.42,7.7c-.56,4.07-2.94,7.57-3.78,11.5-.42,2.38-.14,4.76-1.26,7-1.26,2.53-3.93,3.79-5.89,5.75s-2.8,4.2-5.33,5.46C132.51,183,121.86,186,120,186a35.26,35.26,0,0,1-35.45-35.6,47.66,47.66,0,0,0,.28-5.88l-.7-6.87c0-5.18,1.4-16,4.2-20.18a18.23,18.23,0,0,1,2.1-2.52l3.23-5.33a31.25,31.25,0,0,1,5.6-4.9c2.38-2,4.49-4.35,7.43-5.61,4.2-1.82,9-1.82,13.45-1.82h1.12c10.79,0,17.66,6.17,23.83,14.44,2.66,3.5,6.44,9.94,6.44,14.43C151.57,127.54,150.87,144.78,150.87,144.78Zm45.37-85.22H177l-.14-1.26q3.15-8.84,5.89-17.66c1.12-3.64,2.66-12.47,4.62-12.47l.84.14c4.49.56,2.94,8,4.91,12.61l3.08,5c1,1.55,4.76,10.79,4.76,11.92S197.22,59.56,196.24,59.56Z"/></g></g></svg>