<svg xmlns="http://www.w3.org/2000/svg" viewBox="0 0 48.34 94.22"><defs><style>.cls-1{fill:#fff;}.cls-2{fill:none;stroke:#fff;stroke-linecap:round;stroke-linejoin:round;stroke-width:5.67px;}</style></defs><g id="Layer_2" data-name="Layer 2"><g id="Layer_1-2" data-name="Layer 1"><path class="cls-1" d="M25.32,0H23C10.33,0,0,11.07,0,24.67V47.9c0,11.51,7.59,21.52,17.92,24V69C9.18,66.53,2.84,57.85,2.84,47.9V24.67c0-12,9.05-21.84,20.18-21.84h2.3c11.13,0,20.19,9.8,20.19,21.84V47.9c0,10-6.34,18.64-15.09,21.12V72C40.77,69.42,48.34,59.43,48.34,47.9V24.67C48.34,11.07,38,0,25.32,0Z"/><line class="cls-2" x1="24.17" y1="15.3" x2="24.17" y2="22.43"/><path class="cls-1" d="M35.77,81.75,24.18,94.22,12.58,81.75l2.08-1.93,8.1,8.7V55.84a1.42,1.42,0,1,1,2.83,0V88.53l8.1-8.71Z"/></g></g></svg>