<svg xmlns="http://www.w3.org/2000/svg" viewBox="0 0 48.91 96.9"><defs><style>.cls-1{fill:#fff;}.cls-2,.cls-3{fill:none;stroke:#fff;stroke-linecap:round;stroke-linejoin:round;}.cls-2{stroke-width:6.24px;}.cls-3{stroke-width:3.4px;}</style></defs><g id="Layer_2" data-name="Layer 2"><g id="Layer_1-2" data-name="Layer 1"><path class="cls-1" d="M25.6,0H23.3C10.45,0,0,11.19,0,25V48.18c0,11.23,7.15,21.06,17.05,24V68.63C9.07,65.75,3.4,57.53,3.4,48.18V25C3.4,13.06,12.33,3.4,23.3,3.4h2.3c11,0,19.91,9.66,19.91,21.55V48.18c0,9.38-5.67,17.58-13.66,20.45v3.58c9.92-3,17.06-12.77,17.06-24V25C48.91,11.19,38.45,0,25.6,0Z"/><line class="cls-2" x1="24.45" y1="15.58" x2="24.45" y2="22.71"/><line class="cls-3" x1="24.45" y1="93.21" x2="24.45" y2="51.46"/><polygon class="cls-1" points="38.37 81.94 35.87 79.62 24.46 91.9 13.04 79.62 10.54 81.94 24.46 96.9 38.37 81.94"/></g></g></svg>